<?xml version="1.0" encoding="utf-8"?>
<!-- Generator: Adobe Illustrator 16.0.4, SVG Export Plug-In . SVG Version: 6.00 Build 0)  -->
<!DOCTYPE svg PUBLIC "-//W3C//DTD SVG 1.1//EN" "http://www.w3.org/Graphics/SVG/1.1/DTD/svg11.dtd">
<svg version="1.1" id="Layer_1" xmlns="http://www.w3.org/2000/svg" xmlns:xlink="http://www.w3.org/1999/xlink" x="0px" y="0px"
	 width="443.711px" height="48.943px" viewBox="0 0 443.711 48.943" enable-background="new 0 0 443.711 48.943"
	 xml:space="preserve">
<path fill="#006DA0" d="M14.973,40.201c0,4.135-3.352,7.486-7.486,7.486C3.353,47.687,0,44.336,0,40.201s3.352-7.488,7.486-7.488
	C11.62,32.713,14.973,36.066,14.973,40.201z M37.432,32.713c-4.135,0-7.486,3.354-7.486,7.488s3.352,7.486,7.486,7.486
	c4.134,0,7.486-3.353,7.486-7.486S41.565,32.713,37.432,32.713z M22.459,2.773c-4.135,0-7.486,3.35-7.486,7.483
	c0,4.135,3.352,7.486,7.486,7.486s7.486-3.352,7.486-7.486C29.945,6.123,26.593,2.773,22.459,2.773z"/>
<g>
	<path fill="#003461" d="M113.391,48.213H101.83l-4.242-12.512H80.249l-4.171,12.512H64.812L82.37,0.73h13.9L113.391,48.213z
		 M95.1,28.094l-6-17.852h-0.291L82.81,28.094H95.1z"/>
	<path fill="#003461" d="M150.922,47.334c-5.367,1.072-10.488,1.609-15.363,1.609c-1.953,0-3.793-0.086-5.525-0.256
		c-1.73-0.172-3.658-0.535-5.779-1.099c-2.121-0.559-3.926-1.315-5.414-2.268c-1.488-0.952-2.742-2.291-3.768-4.023
		c-1.023-1.729-1.535-3.768-1.535-6.108V14.34c0-9.561,7.34-14.34,22.021-14.34c3.607,0,8.633,0.537,15.07,1.609v8.559
		c-5.805-1.362-10.779-2.047-14.926-2.047c-1.658,0-3.012,0.049-4.061,0.146c-1.049,0.1-2.146,0.342-3.291,0.731
		c-1.146,0.392-2,1.015-2.561,1.865c-0.562,0.854-0.842,1.965-0.842,3.33v20.19c0,4.293,3.926,6.438,11.779,6.438
		c3.463,0,8.193-0.705,14.193-2.121v8.633H150.922z"/>
	<path fill="#003461" d="M198.035,48.213h-13.168L172.43,29.557h-5.268v18.655h-11.414V0.73h21.363
		c6.244,0,10.803,0.758,13.682,2.268c2.877,1.515,4.316,4.099,4.316,7.756v8.34c0,2.88-1.037,5.099-3.109,6.658
		c-2.074,1.562-4.646,2.537-7.719,2.927L198.035,48.213z M183.916,16.826v-3.365c0-1.756-0.525-2.963-1.572-3.621
		c-1.051-0.657-2.842-0.987-5.379-0.987h-9.803v13.17h9.803c2.682,0,4.512-0.354,5.488-1.062
		C183.428,20.254,183.916,18.875,183.916,16.826z"/>
	<path fill="#003461" d="M244.057,14.412v20.777c0,2.684-0.707,4.975-2.121,6.877c-1.416,1.901-3.317,3.33-5.707,4.281
		c-2.391,0.95-4.78,1.62-7.17,2.012c-2.391,0.389-4.928,0.584-7.609,0.584c-2.538,0-4.915-0.158-7.134-0.476
		c-2.221-0.315-4.586-0.913-7.098-1.793c-2.512-0.877-4.512-2.291-5.998-4.241c-1.488-1.951-2.232-4.365-2.232-7.244V14.412
		c0-2.438,0.549-4.584,1.646-6.438c1.097-1.854,2.414-3.269,3.951-4.244c1.535-0.976,3.402-1.769,5.596-2.377
		c2.195-0.609,4.146-0.988,5.854-1.136C217.742,0.071,219.545,0,221.448,0c1.952,0,3.794,0.072,5.524,0.219
		c1.729,0.147,3.694,0.525,5.891,1.136c2.193,0.608,4.07,1.401,5.633,2.377c1.561,0.977,2.877,2.377,3.951,4.207
		C243.52,9.766,244.057,11.924,244.057,14.412z M232.643,35.189V14.34c0-2.293-0.938-3.901-2.815-4.83
		c-1.877-0.926-4.646-1.389-8.304-1.389c-3.708,0-6.489,0.451-8.343,1.354c-1.854,0.902-2.779,2.522-2.779,4.864V35.19
		c0,1.221,0.316,2.231,0.951,3.037c0.633,0.805,1.547,1.379,2.742,1.719c1.195,0.342,2.342,0.574,3.439,0.695
		c1.097,0.121,2.451,0.182,4.062,0.182c1.611,0,2.963-0.061,4.062-0.182c1.098-0.121,2.229-0.354,3.401-0.695
		c1.17-0.34,2.062-0.914,2.67-1.719C232.338,37.422,232.643,36.41,232.643,35.189z"/>
	<path fill="#003461" d="M293.221,48.213H281.66l-22.971-32.924v32.924h-10.17V0.73h11.559l22.973,32.41V0.73h10.17V48.213z"/>
	<path fill="#003461" d="M344.287,48.213h-11.561l-4.242-12.512h-17.34l-4.17,12.512h-11.269l17.56-47.482h13.9L344.287,48.213z
		 M325.996,28.094l-6-17.852h-0.291l-6,17.852H325.996z"/>
	<path fill="#003461" d="M401.498,48.213h-10.316V13.096h-0.219l-12,35.116h-9.145l-12.363-35.116h-0.293v35.116h-10.463V0.73
		h16.242l11.704,33.946L386.207,0.73h15.291V48.213z"/>
	<path fill="#003461" d="M443.711,48.213h-36.945V0.73h36.216v8.121h-24.804v10.899h22.39v8.121h-22.39v12.219h25.533V48.213
		L443.711,48.213z"/>
</g>
</svg>
